<?xml version="1.0" encoding="UTF-8"?>
<svg id="svg1500" width="182" height="182" version="1.1" viewBox="0 0 182 182" xml:space="preserve" xmlns="http://www.w3.org/2000/svg" xmlns:xlink="http://www.w3.org/1999/xlink"><defs id="defs1484"><linearGradient id="a" x1="36.532" x2="36.532" y1="39.898" y2="80.671" gradientTransform="scale(1.0484 .95387)" gradientUnits="userSpaceOnUse"><stop id="stop1474" stop-color="#fff" offset="0"/><stop id="stop1476" stop-color="#9FC1DB" offset="1"/></linearGradient><linearGradient id="b" x1="23.249" x2="11.852" y1="45.658" y2="96.793" gradientTransform="scale(1.4434 .69282)" gradientUnits="userSpaceOnUse"><stop id="stop1479" stop-color="#90B9D9" offset="0"/><stop id="stop1481" stop-color="#554BBA" offset="1"/></linearGradient><linearGradient id="linearGradient2139" x1="451.42" x2="426.88" y1="93.955" y2="145.12" gradientTransform="matrix(1.4611 0 0 1.4611 -557.72 -38.455)" gradientUnits="userSpaceOnUse" xlink:href="#b"/><linearGradient id="linearGradient2147" x1="436.58" x2="451.74" y1="96.001" y2="108.43" gradientTransform="matrix(1.4611 0 0 1.4611 -557.72 -34.137)" gradientUnits="userSpaceOnUse" xlink:href="#a"/><linearGradient id="linearGradient5197" x1="438.54" x2="455.23" y1="117.18" y2="124.38" gradientTransform="matrix(1.5947 0 0 1.5947 -617.05 -51.062)" gradientUnits="userSpaceOnUse" xlink:href="#a"/><linearGradient id="linearGradient5199" x1="36.532" x2="36.532" y1="39.898" y2="80.671" gradientTransform="scale(1.0484 .95387)" gradientUnits="userSpaceOnUse" xlink:href="#a"/><linearGradient id="linearGradient5201" x1="23.249" x2="11.852" y1="45.658" y2="96.793" gradientTransform="scale(1.4434 .69282)" gradientUnits="userSpaceOnUse" xlink:href="#b"/></defs><rect id="rect6884" width="182" height="182" ry="0" fill="#37394c" stop-color="#000000"/><rect id="rect1998" x="80.151" y="98.821" width="21.697" height="14.613" fill="url(#linearGradient2147)" stop-color="#000000"/><g id="g1496" transform="matrix(1.4611 0 0 1.4611 32.1 18.644)" fill-rule="evenodd" stroke-width=".68442"><path id="path1492" d="m66.043 63.522c-4.4024-7.6092-14.404-17.621-25.731-24.185-10.448-6.0551-21.562-6.537-29.778-7.3067l22.406-28.406c3.1989-4.0555 9.0925-4.7599 13.164-1.5735 0.58763 0.45991 1.1179 0.98817 1.5797 1.5735l31.603 40.065c1.3355 1.6931 1.3355 4.0764 0 5.7695l-9.6889 12.283c-0.88287 1.1172-2.1972 1.7421-3.5551 1.7797z" fill="url(#linearGradient5199)"/><path id="path1494" d="m55.327 59.799c-4.7798-1.3155-9.815-2.0184-15.015-2.0184-6.0585 0-11.893 0.95408-17.361 2.7196-2.4521 0.79178-4.8304 1.7467-7.1221 2.8521-1.7676 0.44364-3.6705-0.17473-4.8293-1.6438l-9.6621-12.249c-1.3355-1.6931-1.3355-4.0764 0-5.7695l9.5093-12.056c0.13415-8.21e-4 0.2684-0.0012 0.40276-0.0012 23.698 0 44.398 12.786 55.527 31.811-0.60115 0.11208-1.2256 0.10755-1.8375-0.02238-3.0587-1.486-6.2728-2.7038-9.6115-3.6227z" fill="url(#linearGradient5201)"/></g><path id="rect1828" d="m107.41 151.77v-41.952c0-1.4858-1.1967-2.6824-2.6825-2.6824h-27.447c-1.4858 0-2.6825 1.1967-2.6825 2.6824v41.952c0 13.67 13.523 9.3797 13.523 23.423v10.594h5.7652v-10.594c0-14.043 13.523-9.7531 13.523-23.423" fill="url(#linearGradient2139)" stop-color="#000000"/><path id="path1334" d="m91 116.2-2.5153 4.3556h1.7943v22.263l-4.5798-4.3348c-0.2957-0.3689-0.50311-0.85159-0.51463-1.3481 0-2.0086-5.2e-4 -3.2015-8.82e-4 -3.6405 0.84792-0.29761 1.46-1.0971 1.46-2.0475 0-1.2023-0.97564-2.178-2.1784-2.178-1.2033 0-2.1786 0.97563-2.1786 2.178 0 0.9504 0.61169 1.7499 1.4589 2.0475l-6.01e-4 3.5979c0 0.97511 0.53498 1.9969 1.1622 2.6472-0.01854-0.0177-0.0384-0.0363 3.53e-4 8.9e-4 0.01589 0.0143 4.8585 4.5991 4.8585 4.5991 0.29527 0.36811 0.50139 0.85054 0.51324 1.3467v2.5185c-1.6637 0.33382-2.9172 1.803-2.9172 3.5654 0 2.0093 1.6288 3.6381 3.6375 3.6381 2.0093 0 3.6382-1.6288 3.6382-3.6381 0-1.7627-1.2545-3.2319-2.9197-3.5657v-2.4743c0-6e-3 3.53e-4 -0.0121 0-0.0191v-5.4728c0.01209-0.49523 0.21903-0.97704 0.51464-1.3448 0 0 4.8427-4.5843 4.8583-4.5985 0.03901-0.0367 0.01854-0.0184 3.54e-4 -3.5e-4 0.62708-0.65035 1.1617-1.6726 1.1617-2.6478l-7.86e-4 -3.4673h1.4604v-4.3568h-4.3563v4.3568h1.4585s-8.83e-4 0.91324-8.83e-4 3.5098c-0.01095 0.49662-0.21857 0.9798-0.51427 1.3486l-4.5807 4.3358v-16.818h1.7972z" fill="url(#linearGradient5197)"/></svg>
