<svg xmlns="http://www.w3.org/2000/svg" xmlns:xlink="http://www.w3.org/1999/xlink" id="svg1500" width="182" height="182" version="1.1" viewBox="0 0 182 182" xml:space="preserve"><defs id="defs1484"><linearGradient id="a" x1="36.532" x2="36.532" y1="39.898" y2="80.671" gradientTransform="scale(1.0484 .95387)" gradientUnits="userSpaceOnUse"><stop id="stop1474" offset="0" stop-color="#fff"/><stop id="stop1476" offset="1" stop-color="#9FC1DB"/></linearGradient><linearGradient id="linearGradient2139" x1="451.42" x2="426.88" y1="93.955" y2="145.12" gradientTransform="matrix(1.4611 0 0 1.4611 -557.72 -38.455)" gradientUnits="userSpaceOnUse"><stop id="stop1479" offset="0" stop-color="#90B9D9"/><stop id="stop1481" offset="1" stop-color="#554BBA"/></linearGradient><linearGradient id="linearGradient2147" x1="436.58" x2="451.74" y1="96.001" y2="108.43" gradientTransform="matrix(1.4611 0 0 1.4611 -557.72 -34.137)" gradientUnits="userSpaceOnUse" xlink:href="#a"/><linearGradient id="linearGradient5197" x1="438.54" x2="455.23" y1="117.18" y2="124.38" gradientTransform="matrix(1.5947 0 0 1.5947 -617.05 -51.062)" gradientUnits="userSpaceOnUse" xlink:href="#a"/></defs><rect id="rect6884" width="182" height="182" fill="#37394c" ry="0" stop-color="#000"/><g id="g1716" stroke-width=".545" transform="matrix(1.8352 0 0 1.8352 -75.998 -148.92)"><rect id="rect1998" width="21.697" height="21.879" x="80.151" y="91.556" fill="url(#linearGradient2147)" ry="1.46" stop-color="#000"/><path id="rect1828" fill="url(#linearGradient2139)" d="m107.41 151.77v-41.952c0-1.4858-1.1967-2.6824-2.6825-2.6824h-27.447c-1.4858 0-2.6825 1.1967-2.6825 2.6824v41.952c0 13.67 13.523 9.3797 13.523 23.423v10.594h5.7652v-10.594c0-14.043 13.523-9.7531 13.523-23.423" stop-color="#000"/><path id="path1334" fill="url(#linearGradient5197)" stroke-width=".545" d="m91 116.2-2.5153 4.3556h1.7943v22.263l-4.5798-4.3348c-0.2957-0.3689-0.50311-0.85159-0.51463-1.3481 0-2.0086-5.2e-4 -3.2015-8.82e-4 -3.6405 0.84792-0.29761 1.46-1.0971 1.46-2.0475 0-1.2023-0.97564-2.178-2.1784-2.178-1.2033 0-2.1786 0.97563-2.1786 2.178 0 0.9504 0.61169 1.7499 1.4589 2.0475l-6.01e-4 3.5979c0 0.97511 0.53498 1.9969 1.1622 2.6472-0.01854-0.0177-0.0384-0.0363 3.53e-4 8.9e-4 0.01589 0.0143 4.8585 4.5991 4.8585 4.5991 0.29527 0.36811 0.50139 0.85054 0.51324 1.3467v2.5185c-1.6637 0.33382-2.9172 1.803-2.9172 3.5654 0 2.0093 1.6288 3.6381 3.6375 3.6381 2.0093 0 3.6382-1.6288 3.6382-3.6381 0-1.7627-1.2545-3.2319-2.9197-3.5657v-2.4743c0-6e-3 3.53e-4 -0.0121 0-0.0191v-5.4728c0.01209-0.49523 0.21903-0.97704 0.51464-1.3448 0 0 4.8427-4.5843 4.8583-4.5985 0.03901-0.0367 0.01854-0.0184 3.54e-4 -3.5e-4 0.62708-0.65035 1.1617-1.6726 1.1617-2.6478l-7.86e-4 -3.4673h1.4604v-4.3568h-4.3563v4.3568h1.4585s-8.83e-4 0.91324-8.83e-4 3.5098c-0.01095 0.49662-0.21857 0.9798-0.51427 1.3486l-4.5807 4.3358v-16.818h1.7972z"/></g></svg>