<svg xmlns="http://www.w3.org/2000/svg" width="888" height="182" viewBox="0 0 888 182" style="background:#37394c"><defs><linearGradient id="a" x1="39.803%" x2="39.803%" y1="59.878%" y2="121.158%"><stop offset="0%" stop-color="#FFF"/><stop offset="100%" stop-color="#9FC1DB"/></linearGradient><linearGradient id="b" x1="50%" x2="25.242%" y1="0%" y2="111.09%"><stop offset="0%" stop-color="#90B9D9"/><stop offset="100%" stop-color="#554BBA"/></linearGradient></defs><g fill="none" fill-rule="evenodd"><text fill="#FFF" font-family="Montserrat-Light, Montserrat" font-size="42" font-weight="300" letter-spacing="4.5" transform="translate(298 8)"><tspan x=".422" y="137">atmosphèr</tspan> <tspan x="266.882" y="137">e</tspan></text><g><path fill="url(#a)" d="M66.0430676,63.5217824 C61.640625,55.912573 51.6395147,45.9010989 40.3125,39.3366975 C29.8643779,33.2816451 18.75,32.7997325 10.5346026,32.0300063 L32.9407656,3.62403252 C36.1396414,-0.431422363 42.0332805,-1.13590717 46.104577,2.05052167 C46.6922079,2.51043508 47.2225245,3.03868818 47.6842344,3.62403252 L79.2870412,43.6892817 C80.6225515,45.3824084 80.6225515,47.7656947 79.2870412,49.4588214 L69.5981824,61.7421146 C68.7153105,62.859323 67.4009621,63.4842566 66.0430676,63.5217824 Z" transform="translate(298 8) translate(105.688 28.125)"/><path fill="url(#b)" d="M55.3274635,59.7986478 C50.5476221,58.4831234 45.5124609,57.7802772 40.3125,57.7802772 C34.254043,57.7802772 28.4192935,58.7343558 22.9514143,60.4999072 C20.4993035,61.2916817 18.1209755,62.2466549 15.8293423,63.3519647 C14.0617017,63.7956084 12.1588174,63.1772357 11.000017,61.7081375 L1.33795884,49.4588214 C0.00244845846,47.7656947 0.00244845846,45.3824084 1.33795884,43.6892817 L10.8472428,31.633649 C10.9813889,31.6328283 11.1156463,31.6324173 11.25,31.6324173 C34.9481937,31.6324173 55.6482774,44.4189052 66.7765263,63.4437348 C66.1753801,63.5558102 65.5509135,63.5512838 64.9390071,63.4213566 C61.8802947,61.935349 58.6661639,60.7175365 55.3274635,59.7986478 Z" transform="translate(298 8) translate(105.688 28.125)"/></g></g></svg>