<svg xmlns="http://www.w3.org/2000/svg" width="540" height="140" viewBox="0 0 540 140" style="background:#37394c"><defs><linearGradient id="a" x1="39.803%" x2="39.803%" y1="59.878%" y2="121.158%"><stop offset="0%" stop-color="#FFF"/><stop offset="100%" stop-color="#9FC1DB"/></linearGradient><linearGradient id="b" x1="50%" x2="25.242%" y1="0%" y2="111.09%"><stop offset="0%" stop-color="#90B9D9"/><stop offset="100%" stop-color="#554BBA"/></linearGradient></defs><g fill="none" fill-rule="evenodd"><text fill="#FFF" font-family="Montserrat-Light, Montserrat" font-size="42" font-weight="300" letter-spacing="4.5" transform="translate(68 20)"><tspan x="113.422" y="63">atmosphèr</tspan> <tspan x="379.882" y="63">e</tspan></text><g><path fill="url(#a)" d="M55.0358896,52.9348187 C51.3671875,46.5938108 43.0329289,38.2509158 33.59375,32.7805812 C24.8869816,27.7347042 15.625,27.3331104 8.77883554,26.6916719 L27.450638,3.0200271 C30.1163678,-0.359518636 35.0277338,-0.946589306 38.4204809,1.70876806 C38.9101732,2.09202924 39.3521037,2.53224015 39.736862,3.0200271 L66.0725343,36.4077347 C67.1854596,37.8186736 67.1854596,39.8047456 66.0725343,41.2156845 L57.9984854,51.4517621 C57.2627587,52.3827692 56.1674684,52.9035472 55.0358896,52.9348187 Z" transform="translate(68 20) translate(16.406 23.438)"/><path fill="url(#b)" d="M46.1062195,49.8322065 C42.1230184,48.7359361 37.9270508,48.150231 33.59375,48.150231 C28.5450359,48.150231 23.6827446,48.9452965 19.1261786,50.4165893 C17.0827529,51.0764015 15.1008129,51.8722124 13.1911186,52.7933039 C11.7180848,53.163007 10.1323478,52.6476964 9.16668086,51.4234479 L1.1149657,41.2156845 C0.00204038205,39.8047456 0.00204038205,37.8186736 1.1149657,36.4077347 L9.03936898,26.3613741 C9.15115745,26.3606902 9.26303857,26.3603478 9.375,26.3603478 C29.1234948,26.3603478 46.3735645,37.0157543 55.6471053,52.869779 C55.1461501,52.9631752 54.6257613,52.9594031 54.1158393,52.8511305 C51.5669123,51.6127908 48.8884699,50.5979471 46.1062195,49.8322065 Z" transform="translate(68 20) translate(16.406 23.438)"/></g></g></svg>