<svg xmlns="http://www.w3.org/2000/svg" width="1500" height="500" viewBox="0 0 1500 500" style="background:#2a2e45"><defs><linearGradient id="a" x1="50.142%" x2="50.142%" y1="100%" y2="0%"><stop offset="0%" stop-color="#3952A8"/><stop offset="51.507%" stop-color="#36378C" stop-opacity=".529"/><stop offset="100%" stop-color="#151A32" stop-opacity=".097"/></linearGradient><linearGradient id="b" x1="39.803%" x2="39.803%" y1="59.878%" y2="121.158%"><stop offset="0%" stop-color="#FFF"/><stop offset="100%" stop-color="#9FC1DB"/></linearGradient><linearGradient id="c" x1="50%" x2="25.242%" y1="0%" y2="111.09%"><stop offset="0%" stop-color="#90B9D9"/><stop offset="100%" stop-color="#554BBA"/></linearGradient></defs><g fill="none" fill-rule="evenodd"><g fill="#8089CA" opacity=".504"><path d="M1118.35504 29.2853938C1123.45168 29.9569767 1126 30.6951788 1126 31.5 1126 32.3048214 1123.45168 33.0430237 1118.35504 33.7146068L1118.35504 33.7146091C1116.98168 33.8955757 1115.91079 34.9933097 1115.76388 36.3707235 1115.07918 42.7902412 1114.32455 46 1113.5 46 1112.67545 46 1111.92082 42.790238 1111.23612 36.370714L1111.23611 36.370715C1111.0892 34.9933041 1110.01831 33.8955725 1108.64496 33.7146062 1103.54832 33.0430233 1101 32.3048212 1101 31.5 1101 30.6951786 1103.54832 29.9569763 1108.64496 29.2853932L1108.64496 29.2853909C1110.01832 29.1044243 1111.08921 28.0066903 1111.23612 26.6292765 1111.92082 20.2097588 1112.67545 17 1113.5 17 1114.32455 17 1115.07918 20.209762 1115.76388 26.629286L1115.76389 26.629285C1115.9108 28.0066959 1116.98169 29.1044275 1118.35504 29.2853938zM197.35504 135.285394C202.45168 135.956977 205 136.695179 205 137.5 205 138.304821 202.451678 139.043024 197.355035 139.714607L197.355036 139.714609C195.981681 139.895576 194.910793 140.99331 194.763879 142.370724 194.079178 148.790241 193.324552 152 192.5 152 191.675448 152 190.920821 148.790238 190.23612 142.370714L190.236111 142.370715C190.089198 140.993304 189.018312 139.895572 187.64496 139.714606 182.54832 139.043023 180 138.304821 180 137.5 180 136.695179 182.548322 135.956976 187.644965 135.285393L187.644964 135.285391C189.018319 135.104424 190.089207 134.00669 190.236121 132.629276 190.920822 126.209759 191.675448 123 192.5 123 193.324552 123 194.079179 126.209762 194.76388 132.629286L194.763889 132.629285C194.910802 134.006696 195.981688 135.104428 197.35504 135.285394zM88.1319455 317.326734C92.0439818 317.987238 94 318.711659 94 319.5 94 320.288339 92.0439884 321.01276 88.1319651 321.673262L88.1319626 321.673248C86.8725782 321.885881 85.8858984 322.872561 85.6732656 324.131946 85.0127624 328.043982 84.2883406 330 83.5 330 82.7116607 330 81.98724 328.043988 81.3267377 324.131965L81.3267523 324.131963C81.114119 322.872578 80.1274389 321.885898 78.8680545 321.673266 74.9560182 321.012762 73 320.288341 73 319.5 73 318.711661 74.9560116 317.98724 78.8680349 317.326738L78.8680374 317.326752C80.1274218 317.114119 81.1141016 316.127439 81.3267344 314.868054 81.9872376 310.956018 82.7116594 309 83.5 309 84.2883393 309 85.01276 310.956012 85.6732623 314.868035L85.6732477 314.868037C85.885881 316.127422 86.8725611 317.114102 88.1319455 317.326734zM502.131946 25.3267344C506.043982 25.9872376 508 26.7116594 508 27.5 508 28.2883393 506.043988 29.01276 502.131965 29.6732623L502.131963 29.6732477C500.872578 29.885881 499.885898 30.8725611 499.673266 32.1319455 499.012762 36.0439818 498.288341 38 497.5 38 496.711661 38 495.98724 36.0439884 495.326738 32.1319651L495.326752 32.1319626C495.114119 30.8725782 494.127439 29.8858984 492.868054 29.6732656 488.956018 29.0127624 487 28.2883406 487 27.5 487 26.7116607 488.956012 25.98724 492.868035 25.3267377L492.868037 25.3267523C494.127422 25.114119 495.114102 24.1274389 495.326734 22.8680545 495.987238 18.9560182 496.711659 17 497.5 17 498.288339 17 499.01276 18.9560116 499.673262 22.8680349L499.673248 22.8680374C499.885881 24.1274218 500.872561 25.1141016 502.131946 25.3267344zM1279.13195 150.326734C1283.04398 150.987238 1285 151.711659 1285 152.5 1285 153.288339 1283.04399 154.01276 1279.13197 154.673262L1279.13196 154.673248C1277.87258 154.885881 1276.8859 155.872561 1276.67327 157.131946 1276.01276 161.043982 1275.28834 163 1274.5 163 1273.71166 163 1272.98724 161.043988 1272.32674 157.131965L1272.32675 157.131963C1272.11412 155.872578 1271.12744 154.885898 1269.86805 154.673266 1265.95602 154.012762 1264 153.288341 1264 152.5 1264 151.711661 1265.95601 150.98724 1269.86803 150.326738L1269.86804 150.326752C1271.12742 150.114119 1272.1141 149.127439 1272.32673 147.868054 1272.98724 143.956018 1273.71166 142 1274.5 142 1275.28834 142 1276.01276 143.956012 1276.67326 147.868035L1276.67325 147.868037C1276.88588 149.127422 1277.87256 150.114102 1279.13195 150.326734zM1258.13195 338.326734C1262.04398 338.987238 1264 339.711659 1264 340.5 1264 341.288339 1262.04399 342.01276 1258.13197 342.673262L1258.13196 342.673248C1256.87258 342.885881 1255.8859 343.872561 1255.67327 345.131946 1255.01276 349.043982 1254.28834 351 1253.5 351 1252.71166 351 1251.98724 349.043988 1251.32674 345.131965L1251.32675 345.131963C1251.11412 343.872578 1250.12744 342.885898 1248.86805 342.673266 1244.95602 342.012762 1243 341.288341 1243 340.5 1243 339.711661 1244.95601 338.98724 1248.86803 338.326738L1248.86804 338.326752C1250.12742 338.114119 1251.1141 337.127439 1251.32673 335.868054 1251.98724 331.956018 1252.71166 330 1253.5 330 1254.28834 330 1255.01276 331.956012 1255.67326 335.868035L1255.67325 335.868037C1255.88588 337.127422 1256.87256 338.114102 1258.13195 338.326734z" transform="translate(36 13)"/><path d="M423.75138,218.258283 C426.931003,218.793842 428.520815,219.381353 428.520815,220.020815 C428.520815,220.660277 426.931006,221.247787 423.751389,221.783346 L423.751388,221.783339 C422.743132,221.953165 421.953173,222.743125 421.783347,223.75138 C421.247789,226.931003 420.660278,228.520815 420.020815,228.520815 C419.381353,228.520815 418.793843,226.931006 418.258285,223.751389 L418.258291,223.751388 C418.088466,222.743132 417.298506,221.953173 416.290251,221.783347 C413.110627,221.247789 411.520815,220.660278 411.520815,220.020815 C411.520815,219.381353 413.110624,218.793843 416.290242,218.258285 L416.290243,218.258291 C417.298498,218.088466 418.088458,217.298506 418.258283,216.290251 C418.793842,213.110627 419.381353,211.520815 420.020815,211.520815 C420.660277,211.520815 421.247787,213.110624 421.783346,216.290242 L421.783339,216.290243 C421.953165,217.298498 422.743125,218.088458 423.75138,218.258283 Z" transform="translate(36 13) rotate(45 420.02 220.02)"/><path d="M15.7513799,50.2582831 C18.9310035,50.793842 20.5208153,51.3813527 20.5208153,52.0208153 C20.5208153,52.6602772 18.9310065,53.2477874 15.7513888,53.7833459 L15.7513877,53.7833393 C14.7431324,53.9531646 13.9531726,54.7431246 13.7833474,55.7513799 C13.2477885,58.9310035 12.6602778,60.5208153 12.0208153,60.5208153 C11.3813533,60.5208153 10.7938431,58.9310065 10.2582846,55.7513888 L10.2582913,55.7513877 C10.0884659,54.7431324 9.29850601,53.9531726 8.29025065,53.7833474 C5.11062707,53.2477885 3.52081528,52.6602778 3.52081528,52.0208153 C3.52081528,51.3813533 5.1106241,50.7938431 8.29024173,50.2582846 L8.29024285,50.2582913 C9.29849818,50.0884659 10.088458,49.298506 10.2582831,48.2902507 C10.793842,45.1106271 11.3813527,43.5208153 12.0208153,43.5208153 C12.6602772,43.5208153 13.2477874,45.1106241 13.7833459,48.2902417 L13.7833393,48.2902429 C13.9531646,49.2984982 14.7431246,50.088458 15.7513799,50.2582831 Z" transform="translate(36 13) rotate(45 12.02 52.02)"/><path d="M175.230565 6.73746786C178.410188 7.27302675 180 7.86053747 180 8.5 180 9.13946194 178.410191 9.72697215 175.230574 10.2625306L175.230572 10.262524C174.222317 10.4323493 173.432357 11.2223093 173.262532 12.2305646 172.726973 15.4101882 172.139463 17 171.5 17 170.860538 17 170.273028 15.4101912 169.737469 12.2305735L169.737476 12.2305724C169.567651 11.2223171 168.777691 10.4323573 167.769435 10.2625321 164.589812 9.72697325 163 9.13946253 163 8.5 163 7.86053806 164.589809 7.27302785 167.769426 6.73746936L167.769428 6.73747601C168.777683 6.56765066 169.567643 5.77769073 169.737468 4.76943537 170.273027 1.58981179 170.860537 0 171.5 0 172.139462 0 172.726972 1.58980882 173.262531 4.76942645L173.262524 4.76942757C173.432349 5.7776829 174.222309 6.56764268 175.230565 6.73746786zM1418.23056 41.7374679C1421.41019 42.2730268 1423 42.8605375 1423 43.5 1423 44.1394619 1421.41019 44.7269722 1418.23057 45.2625306L1418.23057 45.262524C1417.22232 45.4323493 1416.43236 46.2223093 1416.26253 47.2305646 1415.72697 50.4101882 1415.13946 52 1414.5 52 1413.86054 52 1413.27303 50.4101912 1412.73747 47.2305735L1412.73748 47.2305724C1412.56765 46.2223171 1411.77769 45.4323573 1410.76944 45.2625321 1407.58981 44.7269732 1406 44.1394625 1406 43.5 1406 42.8605381 1407.58981 42.2730278 1410.76943 41.7374694L1410.76943 41.737476C1411.77768 41.5676507 1412.56764 40.7776907 1412.73747 39.7694354 1413.27303 36.5898118 1413.86054 35 1414.5 35 1415.13946 35 1415.72697 36.5898088 1416.26253 39.7694265L1416.26252 39.7694276C1416.43235 40.7776829 1417.22231 41.5676427 1418.23056 41.7374679z" transform="translate(36 13)"/><path d="M959.75138,256.258283 C962.931003,256.793842 964.520815,257.381353 964.520815,258.020815 C964.520815,258.660277 962.931006,259.247787 959.751389,259.783346 L959.751388,259.783339 C958.743132,259.953165 957.953173,260.743125 957.783347,261.75138 C957.247789,264.931003 956.660278,266.520815 956.020815,266.520815 C955.381353,266.520815 954.793843,264.931006 954.258285,261.751389 L954.258291,261.751388 C954.088466,260.743132 953.298506,259.953173 952.290251,259.783347 C949.110627,259.247789 947.520815,258.660278 947.520815,258.020815 C947.520815,257.381353 949.110624,256.793843 952.290242,256.258285 L952.290243,256.258291 C953.298498,256.088466 954.088458,255.298506 954.258283,254.290251 C954.793842,251.110627 955.381353,249.520815 956.020815,249.520815 C956.660277,249.520815 957.247787,251.110624 957.783346,254.290242 L957.783339,254.290243 C957.953165,255.298498 958.743125,256.088458 959.75138,256.258283 Z" transform="translate(36 13) rotate(45 956.02 258.02)"/><path d="M679.75138,74.2582831 C682.931003,74.793842 684.520815,75.3813527 684.520815,76.0208153 C684.520815,76.6602772 682.931006,77.2477874 679.751389,77.7833459 L679.751388,77.7833393 C678.743132,77.9531646 677.953173,78.7431246 677.783347,79.7513799 C677.247789,82.9310035 676.660278,84.5208153 676.020815,84.5208153 C675.381353,84.5208153 674.793843,82.9310065 674.258285,79.7513888 L674.258291,79.7513877 C674.088466,78.7431324 673.298506,77.9531726 672.290251,77.7833474 C669.110627,77.2477885 667.520815,76.6602778 667.520815,76.0208153 C667.520815,75.3813533 669.110624,74.7938431 672.290242,74.2582846 L672.290243,74.2582913 C673.298498,74.0884659 674.088458,73.298506 674.258283,72.2902507 C674.793842,69.1106271 675.381353,67.5208153 676.020815,67.5208153 C676.660277,67.5208153 677.247787,69.1106241 677.783346,72.2902417 L677.783339,72.2902429 C677.953165,73.2984982 678.743125,74.088458 679.75138,74.2582831 Z" transform="translate(36 13) rotate(45 676.02 76.02)"/><path d="M859.75138,121.258283 C862.931003,121.793842 864.520815,122.381353 864.520815,123.020815 C864.520815,123.660277 862.931006,124.247787 859.751389,124.783346 L859.751388,124.783339 C858.743132,124.953165 857.953173,125.743125 857.783347,126.75138 C857.247789,129.931003 856.660278,131.520815 856.020815,131.520815 C855.381353,131.520815 854.793843,129.931006 854.258285,126.751389 L854.258291,126.751388 C854.088466,125.743132 853.298506,124.953173 852.290251,124.783347 C849.110627,124.247789 847.520815,123.660278 847.520815,123.020815 C847.520815,122.381353 849.110624,121.793843 852.290242,121.258285 L852.290243,121.258291 C853.298498,121.088466 854.088458,120.298506 854.258283,119.290251 C854.793842,116.110627 855.381353,114.520815 856.020815,114.520815 C856.660277,114.520815 857.247787,116.110624 857.783346,119.290242 L857.783339,119.290243 C857.953165,120.298498 858.743125,121.088458 859.75138,121.258283 Z" transform="translate(36 13) rotate(45 856.02 123.02)"/></g><rect width="1500" height="557" x="1" y="13" fill="url(#a)"/><g><text fill="#FFF" font-family="Montserrat-Light, Montserrat" font-size="52" font-weight="300" letter-spacing="4.5" transform="translate(575 127)"><tspan x=".082" y="206">atmosphèr</tspan> <tspan x="320.342" y="206">e</tspan></text><g><path fill="url(#b)" d="M105.668908,101.634852 C98.625,89.4601167 82.6232236,73.4417583 64.5,62.938716 C47.7830047,53.2506321 30,52.479572 16.8553642,51.2480101 L52.7052249,5.79845203 C57.8234262,-0.69027578 67.2532489,-1.81745147 73.7673233,3.28083467 C74.7075326,4.01669613 75.5560392,4.86190108 76.2947751,5.79845203 L126.859266,69.9028507 C128.996082,72.6118534 128.996082,76.4251116 126.859266,79.1341143 L111.357092,98.7873833 C109.944497,100.574917 107.841539,101.574811 105.668908,101.634852 Z" transform="translate(575 127) translate(111.5 45)"/><path fill="url(#c)" d="M88.5239415,95.6778365 C80.8761953,93.5729974 72.8199375,92.4484436 64.5,92.4484436 C54.8064688,92.4484436 45.4708696,93.9749693 36.7222629,96.7998515 C32.7988857,98.0666908 28.9935608,99.5946478 25.3269476,101.363144 C22.4987227,102.072973 19.4541078,101.083577 17.6000273,98.73302 L2.14073415,79.1341143 C0.00391753354,76.4251116 0.00391753354,72.6118534 2.14073415,69.9028507 L17.3555884,50.6138384 C17.5702223,50.6125253 17.7850341,50.6118677 18,50.6118677 C55.91711,50.6118677 89.0372438,71.0702483 106.842442,101.509976 C105.880608,101.689296 104.881462,101.682054 103.902411,101.47417 C99.0084715,99.0965583 93.8658623,97.1480584 88.5239415,95.6778365 Z" transform="translate(575 127) translate(111.5 45)"/></g></g></g></svg>