<svg xmlns="http://www.w3.org/2000/svg" xmlns:xlink="http://www.w3.org/1999/xlink" width="750" height="1334" viewBox="0 0 750 1334" style="background:#272c45"><defs><linearGradient id="a" x1="50.142%" x2="50.142%" y1="100%" y2="0%"><stop offset="0%" stop-color="#3952A8"/><stop offset="51.507%" stop-color="#36378C" stop-opacity=".529"/><stop offset="100%" stop-color="#151A32" stop-opacity=".097"/></linearGradient><path id="b" d="M-3.41060513e-13,1191.83865 C125.657381,1183.98544 252.363266,1180 380,1180 C504.251642,1180 627.621156,1183.77684 750,1191.22198 L750,1334 L0,1334 L0,1191.83865 Z"/><linearGradient id="c" x1="39.803%" x2="39.803%" y1="59.878%" y2="121.158%"><stop offset="0%" stop-color="#FFF"/><stop offset="100%" stop-color="#9FC1DB"/></linearGradient><linearGradient id="d" x1="50%" x2="25.242%" y1="0%" y2="111.09%"><stop offset="0%" stop-color="#90B9D9"/><stop offset="100%" stop-color="#554BBA"/></linearGradient></defs><g fill="none" fill-rule="evenodd"><g fill="#D3DBE7" opacity=".595"><path d="M162.35504 118.285394C167.45168 118.956977 170 119.695179 170 120.5 170 121.304821 167.451678 122.043024 162.355035 122.714607L162.355036 122.714609C160.981681 122.895576 159.910793 123.99331 159.763879 125.370724 159.079178 131.790241 158.324552 135 157.5 135 156.675448 135 155.920821 131.790238 155.23612 125.370714L155.236111 125.370715C155.089198 123.993304 154.018312 122.895572 152.64496 122.714606 147.54832 122.043023 145 121.304821 145 120.5 145 119.695179 147.548322 118.956976 152.644965 118.285393L152.644964 118.285391C154.018319 118.104424 155.089207 117.00669 155.236121 115.629276 155.920822 109.209759 156.675448 106 157.5 106 158.324552 106 159.079179 109.209762 159.76388 115.629286L159.763889 115.629285C159.910802 117.006696 160.981688 118.104428 162.35504 118.285394zM63.1319455 413.326734C67.0439818 413.987238 69 414.711659 69 415.5 69 416.288339 67.0439884 417.01276 63.1319651 417.673262L63.1319626 417.673248C61.8725782 417.885881 60.8858984 418.872561 60.6732656 420.131946 60.0127624 424.043982 59.2883406 426 58.5 426 57.7116607 426 56.98724 424.043988 56.3267377 420.131965L56.3267523 420.131963C56.114119 418.872578 55.1274389 417.885898 53.8680545 417.673266 49.9560182 417.012762 48 416.288341 48 415.5 48 414.711661 49.9560116 413.98724 53.8680349 413.326738L53.8680374 413.326752C55.1274218 413.114119 56.1141016 412.127439 56.3267344 410.868054 56.9872376 406.956018 57.7116594 405 58.5 405 59.2883393 405 60.01276 406.956012 60.6732623 410.868035L60.6732477 410.868037C60.885881 412.127422 61.8725611 413.114102 63.1319455 413.326734zM451.131946 8.3267344C455.043982 8.98723756 457 9.71165943 457 10.5 457 11.2883393 455.043988 12.01276 451.131965 12.6732623L451.131963 12.6732477C449.872578 12.885881 448.885898 13.8725611 448.673266 15.1319455 448.012762 19.0439818 447.288341 21 446.5 21 445.711661 21 444.98724 19.0439884 444.326738 15.1319651L444.326752 15.1319626C444.114119 13.8725782 443.127439 12.8858984 441.868054 12.6732656 437.956018 12.0127624 436 11.2883406 436 10.5 436 9.71166074 437.956012 8.98723998 441.868035 8.32673769L441.868037 8.32675227C443.127422 8.11411902 444.114102 7.1274389 444.326734 5.86805448 444.987238 1.95601816 445.711659 0 446.5 0 447.288339 0 448.01276 1.95601165 448.673262 5.86803495L448.673248 5.86803741C448.885881 7.12742176 449.872561 8.11410155 451.131946 8.3267344z" transform="translate(51 30)"/><path d="M310.75138,308.258283 C313.931003,308.793842 315.520815,309.381353 315.520815,310.020815 C315.520815,310.660277 313.931006,311.247787 310.751389,311.783346 L310.751388,311.783339 C309.743132,311.953165 308.953173,312.743125 308.783347,313.75138 C308.247789,316.931003 307.660278,318.520815 307.020815,318.520815 C306.381353,318.520815 305.793843,316.931006 305.258285,313.751389 L305.258291,313.751388 C305.088466,312.743132 304.298506,311.953173 303.290251,311.783347 C300.110627,311.247789 298.520815,310.660278 298.520815,310.020815 C298.520815,309.381353 300.110624,308.793843 303.290242,308.258285 L303.290243,308.258291 C304.298498,308.088466 305.088458,307.298506 305.258283,306.290251 C305.793842,303.110627 306.381353,301.520815 307.020815,301.520815 C307.660277,301.520815 308.247787,303.110624 308.783346,306.290242 L308.783339,306.290243 C308.953165,307.298498 309.743125,308.088458 310.75138,308.258283 Z" transform="translate(51 30) rotate(45 307.02 310.02)"/><path d="M15.7513799,36.2582831 C18.9310035,36.793842 20.5208153,37.3813527 20.5208153,38.0208153 C20.5208153,38.6602772 18.9310065,39.2477874 15.7513888,39.7833459 L15.7513877,39.7833393 C14.7431324,39.9531646 13.9531726,40.7431246 13.7833474,41.7513799 C13.2477885,44.9310035 12.6602778,46.5208153 12.0208153,46.5208153 C11.3813533,46.5208153 10.7938431,44.9310065 10.2582846,41.7513888 L10.2582913,41.7513877 C10.0884659,40.7431324 9.29850601,39.9531726 8.29025065,39.7833474 C5.11062707,39.2477885 3.52081528,38.6602778 3.52081528,38.0208153 C3.52081528,37.3813533 5.1106241,36.7938431 8.29024173,36.2582846 L8.29024285,36.2582913 C9.29849818,36.0884659 10.088458,35.298506 10.2582831,34.2902507 C10.793842,31.1106271 11.3813527,29.5208153 12.0208153,29.5208153 C12.6602772,29.5208153 13.2477874,31.1106241 13.7833459,34.2902417 L13.7833393,34.2902429 C13.9531646,35.2984982 14.7431246,36.088458 15.7513799,36.2582831 Z" transform="translate(51 30) rotate(45 12.02 38.02)"/><path d="M514.35504 369.285394C519.45168 369.956977 522 370.695179 522 371.5 522 372.304821 519.451678 373.043024 514.355035 373.714607L514.355036 373.714609C512.981681 373.895576 511.910793 374.99331 511.763879 376.370724 511.079178 382.790241 510.324552 386 509.5 386 508.675448 386 507.920821 382.790238 507.23612 376.370714L507.236111 376.370715C507.089198 374.993304 506.018312 373.895572 504.64496 373.714606 499.54832 373.043023 497 372.304821 497 371.5 497 370.695179 499.548322 369.956976 504.644965 369.285393L504.644964 369.285391C506.018319 369.104424 507.089207 368.00669 507.236121 366.629276 507.920822 360.209759 508.675448 357 509.5 357 510.324552 357 511.079179 360.209762 511.76388 366.629286L511.763889 366.629285C511.910802 368.006696 512.981688 369.104428 514.35504 369.285394zM638.131946 509.326734C642.043982 509.987238 644 510.711659 644 511.5 644 512.288339 642.043988 513.01276 638.131965 513.673262L638.131963 513.673248C636.872578 513.885881 635.885898 514.872561 635.673266 516.131946 635.012762 520.043982 634.288341 522 633.5 522 632.711661 522 631.98724 520.043988 631.326738 516.131965L631.326752 516.131963C631.114119 514.872578 630.127439 513.885898 628.868054 513.673266 624.956018 513.012762 623 512.288341 623 511.5 623 510.711661 624.956012 509.98724 628.868035 509.326738L628.868037 509.326752C630.127422 509.114119 631.114102 508.127439 631.326734 506.868054 631.987238 502.956018 632.711659 501 633.5 501 634.288339 501 635.01276 502.956012 635.673262 506.868035L635.673248 506.868037C635.885881 508.127422 636.872561 509.114102 638.131946 509.326734zM638.131946 143.326734C642.043982 143.987238 644 144.711659 644 145.5 644 146.288339 642.043988 147.01276 638.131965 147.673262L638.131963 147.673248C636.872578 147.885881 635.885898 148.872561 635.673266 150.131946 635.012762 154.043982 634.288341 156 633.5 156 632.711661 156 631.98724 154.043988 631.326738 150.131965L631.326752 150.131963C631.114119 148.872578 630.127439 147.885898 628.868054 147.673266 624.956018 147.012762 623 146.288341 623 145.5 623 144.711661 624.956012 143.98724 628.868035 143.326738L628.868037 143.326752C630.127422 143.114119 631.114102 142.127439 631.326734 140.868054 631.987238 136.956018 632.711659 135 633.5 135 634.288339 135 635.01276 136.956012 635.673262 140.868035L635.673248 140.868037C635.885881 142.127422 636.872561 143.114102 638.131946 143.326734z" transform="translate(51 30)"/></g><rect width="750" height="1428" y="-228" fill="url(#a)"/><use fill="#1C2149" xlink:href="#b"/><path stroke="#1C2149" stroke-opacity=".3" stroke-width="20" d="M-0.623753654,1181.85813 C125.696923,1173.96345 252.611387,1170 380,1170 C504.021509,1170 627.594032,1173.7567 750.607246,1181.24044 L760,1181.81186 L760,1344 L-10,1344 L-10,1182.44411 L-0.623753654,1181.85813 Z"/><path stroke="#1C2149" stroke-opacity=".3" stroke-width="40" d="M-1.24750731,1171.8776 C125.280796,1163.96995 252.40328,1160 380,1160 C504.224099,1160 627.999131,1163.76286 751.214492,1171.25889 L770,1172.40174 L770,1354 L-20,1354 L-20,1173.04957 L-1.24750731,1171.8776 Z"/><path stroke="#1C2149" stroke-opacity=".4" stroke-width="80" d="M-2.49501461,1151.91654 C124.448543,1143.98294 251.987065,1140 380,1140 C504.62928,1140 628.809329,1143.77517 752.428983,1151.2958 L790,1153.5815 L790,1374 L-40,1374 L-40,1154.26049 L-2.49501461,1151.91654 Z"/><g><text fill="#FFF" font-family="Montserrat-Light, Montserrat" font-size="70" font-weight="300" letter-spacing="6" transform="translate(139 512)"><tspan x=".12" y="283">atmosphèr</tspan> <tspan x="430.72" y="283">e</tspan></text><g><path fill="url(#c)" d="M140.891877,135.513136 C131.5,119.280156 110.164298,97.9223443 86,83.9182879 C63.7106729,71.0008429 40,69.9727626 22.473819,68.3306802 L70.2736332,7.73126938 C77.0979016,-0.920367707 89.6709985,-2.42326862 98.356431,4.37444623 C99.6100435,5.35559484 100.741386,6.48253478 101.726367,7.73126938 L169.145688,93.2038009 C171.994777,96.8158045 171.994777,101.900149 169.145688,105.512152 L148.476123,131.716511 C146.592662,134.099889 143.788719,135.433081 140.891877,135.513136 Z" transform="translate(139 512) translate(150 60)"/><path fill="url(#d)" d="M118.031922,127.570449 C107.834927,124.763997 97.0932499,123.264591 86,123.264591 C73.0752918,123.264591 60.6278261,125.299959 48.9630173,129.066469 C43.7318475,130.755588 38.6580811,132.792864 33.7692635,135.150858 C29.998297,136.097298 25.9388104,134.778103 23.466703,131.644027 L2.85431219,105.512152 C0.00522337805,101.900149 0.00522337805,96.8158045 2.85431219,93.2038009 L23.1407846,67.4851178 C23.4269631,67.483367 23.7133787,67.4824903 24,67.4824903 C74.5561466,67.4824903 118.716325,94.760331 142.45659,135.346634 C141.174144,135.585728 139.841949,135.576072 138.536549,135.298894 C132.011295,132.128744 125.154483,129.530745 118.031922,127.570449 Z" transform="translate(139 512) translate(150 60)"/></g></g></g></svg>