<svg xmlns="http://www.w3.org/2000/svg" width="256" height="256" viewBox="0 0 256 256"><defs><linearGradient id="a" x1="39.803%" x2="39.803%" y1="59.878%" y2="121.158%"><stop offset="0%" stop-color="#FFF"/><stop offset="100%" stop-color="#9FC1DB"/></linearGradient><linearGradient id="b" x1="50%" x2="25.242%" y1="0%" y2="111.09%"><stop offset="0%" stop-color="#90B9D9"/><stop offset="100%" stop-color="#554BBA"/></linearGradient></defs><g fill="none" fill-rule="evenodd"><path fill="url(#a)" d="M140.891877,135.513136 C131.5,119.280156 110.164298,97.9223443 86,83.9182879 C63.7106729,71.0008429 40,69.9727626 22.473819,68.3306802 L70.2736332,7.73126938 C77.0979016,-0.920367707 89.6709985,-2.42326862 98.356431,4.37444623 C99.6100435,5.35559484 100.741386,6.48253478 101.726367,7.73126938 L169.145688,93.2038009 C171.994777,96.8158045 171.994777,101.900149 169.145688,105.512152 L148.476123,131.716511 C146.592662,134.099889 143.788719,135.433081 140.891877,135.513136 Z" transform="translate(42 60)"/><path fill="url(#b)" d="M118.031922,127.570449 C107.834927,124.763997 97.0932499,123.264591 86,123.264591 C73.0752918,123.264591 60.6278261,125.299959 48.9630173,129.066469 C43.7318475,130.755588 38.6580811,132.792864 33.7692635,135.150858 C29.998297,136.097298 25.9388104,134.778103 23.466703,131.644027 L2.85431219,105.512152 C0.00522337805,101.900149 0.00522337805,96.8158045 2.85431219,93.2038009 L23.1407846,67.4851178 C23.4269631,67.483367 23.7133787,67.4824903 24,67.4824903 C74.5561466,67.4824903 118.716325,94.760331 142.45659,135.346634 C141.174144,135.585728 139.841949,135.576072 138.536549,135.298894 C132.011295,132.128744 125.154483,129.530745 118.031922,127.570449 Z" transform="translate(42 60)"/></g></svg>