<?xml version="1.0" encoding="UTF-8"?>
<svg version="1.1" viewBox="0 0 2048 1152" width="1280" height="720" xmlns="http://www.w3.org/2000/svg">
<path transform="translate(0)" d="m0 0h2048v1152h-2048z"/>
<path transform="translate(937,402)" d="m0 0h77l24 1 8 1-2 5-13 19-6 10-10 21-7 20-1 8 11-7 14-11 15-10 16-8 10-3 14-1 13 3 8 4 10 9 10 10 7 8 3 3 4 1 1-8-3-18-5-17v-8h7l10 6 10 9 11 9 16 16 7 8 11 12 6 12 1 4v10l-4 17-17 51-1 9 5 10 11 13 6 10 8 16 11 18 7-6 4-5 7-17 7-9 6-5 2-1h9l7 6h2l1-5-3-5-6-4-12-3-3-3 1-9 9-15 7-9 6-5h5l13 8 3-1-1-5-4-5-8-4-7-1-10 3-9 7-7 5-5-1-1-2v-17l3-10 7-8 8-5 6-2h10l8 6 7 9 6 12 5 16 2 14v15l-2 17-4 17-7 19-7 13-10 14-12 12-11 7-10 4h-8l1-5v-7l-3-4h-6l-6 5-4 9-5 22-8 18-11 18-12 14-10 9-13 9-18 10-24 13-18 10-14 10-11 9-15 11-16 9-15 7-13 4-22 2-36-1-16-3-12-5-22-13-22-14-27-15-29-15-23-13-17-10-14-10-13-12-10-11-9-15-7-17-9-30-3-6v-2l-3-1h-8l-1 1v18l-2 2-7-1-12-8-13-11-9-10-10-15-8-14-7-18-5-21-1-7v-25l4-17 4-10 8-11 3-3 7 1 16 8 7 6 2 4 3 16 1 5-6-2-21-10-4-1-10 6-6 5-2 3v3l6 1 10-5 7 1 8 7 6 7 7 14 1 6-9 3-7 6-3 6-1 7 7-2 8-5h5l7 8 14 27 2 4 5 2 5-1 6-5 7-11 4-5 5-3 11-3 2-4v-21l-3-16-11-30-6-21-2-10-1-11v-11l3-13 11-12 8-8 16-12 7-1v21l5 1 8-7 7-7 7-8 11-9 10-5 8-2h9l16 5 19 10 22 15 7 5 5 1-3-12-12-23-20-30-3-5 1-4 15-7 15-4z" fill="#FEFEFE"/>
<path transform="translate(957,59)" d="m0 0h22l30 3 23 4 29 8 22 9 23 11 23 14 18 13 13 11 11 9 28 28 9 11 14 17 14 20 14 22 15 27 11 22 10 25 9 27 6 26 4 26 1 10v41l-3 20-5 16-7 12-11 12-10 8-17 11-6 7-4 12-2 26-1 51-1 11-3 7-4 1-3-5-4-26v-5l-6 2-7 4h-5l-3-5v-11l5-21 9-24 4-18 2-10 3-6 3-2 8-2 5-6 3-10 2-14v-21l-2-20-4-16-10-21-8-12-9-11-11-12-13-11-18-13-21-12-24-12-26-10-38-13 2-19 3-28v-22l-3-24-5-18-9-17-9-11-10-9-14-9-16-8-12-4-13-2h-35l-21 3-16 6-17 9-12 8-12 11-7 7-9 13-6 13-4 13-2 13v18l3 17 5 15 10 19 6 9-1 3-26 14-46 28-19 13-19 14-10 9-8 7-8 8-10 13-9 16-5 15-2 8v35l5 21 5 12 4 6 6 1 5-3 4 1 4 13 17 73 4 20-2 1-16-3-2 10-3 5-4-1-7-29-3-15-4-31-3-14-4-10-7-9-15-11-9-7-7-6-9-12-10-19-8-24-4-21-1-7-1-20v-14l1-22 4-25 6-21 7-20 8-18 11-22 13-22 14-21 11-15 8-10 9-11 9-10 7-8 27-27 11-9 15-12 21-14 16-9 25-12 25-9 26-6 25-3z" fill="#FEFEFE"/>
<path transform="translate(833,836)" d="m0 0h8l9 2 22 10 2 2 4 31 9 71 30 3 29 1h31l37-1 29-2 15-2 12-4h2l-4-58v-14l18-13 20-12 17-9h3l9 23 12 43 8 36 1 13-3 2-10-7-11-4-5-1h-16l-10 3-9 6-5 8-3 10v25l4 16 4 8 6 7 10 6 10 4 9 2h13l11-4 11-8 11-11 3-2h4l9 20 13 27 4 9-1 7-7 13-9 10-13 10v3l8-1 13-8 13-10 3-1 3 19 1 10v28h-455l-1-16v-14l2-9 4-3 6 2 21 14 5 2-5-6-13-10-10-10-6-10 1-6 5-1 19 9 4-1-7-9-11-11-3-4 1-7 11-26 8-19 4-1 17 7 16 4 18 1 15-2 10-5 6-7 3-6 1-5v-9l-3-13-8-16-6-7-10-6-7-2h-16l-13 4-10 9-4 1-1-1v-17l7-105 6-2z" fill="#FEFEFE"/>
<path transform="translate(1048,477)" d="m0 0h14l13 2 14 7 7 6 9 12 8 17 4 17v29l-3 14-5 12-4 5h-2l1-8 2-15v-28l-2-15-5-12-6-9-5-5-7-6-11-5-13-2-12 2-10 5-6 5h-2l-2 4-5 6v2l5-2 9-7 9-4h12l8 4 9 9 8 14 4 11 3 15v21l-4 17-12 25 1 8 8 28 1 1h14l14-5 16-8 22-13 6-3 7 1 6 10 7 15 4 15v18l-5 9-10 9-16 10-9 7-7 11-8 11-11 9-14 7-8 2-19 2-7 3-6 9-7 12-9 10-10 7-15 7-17 5-6 1h-16l-18-4-16-5-13-7-13-11-9-9-3-4v-4l8-3-1-7-2-1h-11l-21 2-13-2-12-5-13-10-9-10-7-8-8-5-11-6-7-6-9-13-7-15-3-14 1-15 4-11 6-10 6-4 13 7 16 10 14 7 9 3h10l4-4 2-6 2-11 3-11v-9l-11-18-6-13-3-12-1-10v-10l2-15 5-14 8-11 8-6 5-2h12l10 6 11 8 4 1 1-4-5-10-9-9-8-5-10-3h-12l-12 4-9 6-7 8-6 11-5 19v32l5 19 8 14 9 13-1 4-5-2-8-7-8-9-8-16-4-17v-29l3-17 6-15 7-10 9-10 11-7 9-3h17l10 4 9 6 8 8 8 13 6 14 5 19 4 22 1 1h67l4-11 6-30 5-17 7-14 7-8 8-5z"/>
<path transform="translate(1382,649)" d="m0 0h13l11 4 9 7 6 10 3 13 1 21-3 40-6 47-6 43-2 18-1 22 3-1 3-11 4-22 4-6 7-1 12 6 12 11 9 14 5 14 2 11v19l-4 20-8 23-8 16-8 11-9 11-14 14-13 9-26 10-32 10-26 8-14 3h-21l-17-4-13-5-14-8-10-9-6-8v-2l6 1 17 10 17 7 7 1-1-3-18-11-12-8-12-11-6-7-9-14-4-10-3-17v-36l3-19 6-18 6-10 8-8 9-2 9 3 11 9 8 9 3 1-2-8-1-8v-27l4-8 8-7 7-2h13l10 3 10 6 8 9 7 15 5 14v2h2l1-13 1-130 2-30 4-14 7-11 8-8 10-6z" fill="#FEFEFE"/>
<path transform="translate(548,664)" d="m0 0h11l12 3 9 6 7 7 7 12 6 18 5 26 4 35 4 68 2 18 3 12 1 2 3-1 8-26 5-9 7-6 9-3 6-1h9l13 3 6 7 3 7 2 10v32l5-5 8-10 7-7 2-1 9 1 9 6 7 7 7 11 7 16 4 16 2 14v18l-3 17-5 13-8 15-12 13-11 9-21 13v2l10-1 15-5 14-7 8-6h2l-1 4-6 8-8 7-17 8-13 4-18 3h-18l-6-2-8-4-32-8-25-9-26-12-10-7-10-9-9-10-11-15-12-20-7-16-5-17-2-9-1-16 2-14 5-12 7-11 11-10 8-4h5l5 6 4 13 5 18 3 1-1-12-15-75-12-49-4-21-1-9v-22l4-11 6-9 11-7z" fill="#FEFEFE"/>
<path transform="translate(964,297)" d="m0 0h28l34 3 30 5 30 8 24 9 22 10 19 11 11 8 12 9 13 11 21 21 11 15 8 16 7 24 3 17v21l-2 2-6-1-14-12-8-7-12-11-11-9-14-12-20-14-16-9-19-9-18-7-28-8-10-2-22-2h-106l-22 4-38 12-19 4-16 2-11 3-11 6-12 12-7 8-11 10-14 11-17 14-16 13-18 14-5-1-2-3-1-8v-28l2-14 5-15 7-14 8-11 12-14 11-10 14-11 14-10 23-14 16-9 25-12 15-6 18-6 22-6 36-6z" fill="#FEFEFE"/>
<path transform="translate(959,132)" d="m0 0h11l15 2 13 4 15 8 11 9 13 13 9 13 8 17 4 16 2 12v29l-3 16-5 12-3 3-105 1-29 2-23 3h-14l-8-3-6-4-7-11-5-11-3-12-1-7v-26l3-16 5-12 7-11 9-10 11-10 14-9 16-8 19-6 15-3z" fill="#FEFEFE"/>
<path transform="translate(945,577)" d="m0 0h45l14 3 12 5 16 10 13 11 10 11 8 13 4 12 2 19v16l-3 15-5 12-7 10-7 8-14 10-16 8-15 4-14 2h-34l-14-3-13-5-13-7-13-10-11-11-9-14-6-16-3-18v-9l3-17 6-15 9-13 10-10 15-10 14-7 9-3z" fill="#FEFEFE"/>
<path transform="translate(986,149)" d="m0 0h6l8 7 12 18 16 29 8 16 13 27 2 6v7l-5 5-10 6-13 4-5 1h-9l-5-3-8-16-13-30-1-3-5 3-12 15-7 9-4 2-7-6-9-11-9-10-5-6h-2l-3 12-5 25-5 15-6 8-6 3h-12l-11-4-7-6-1-3v-10l4-15 11-32 11-28 7-14 6-8 9-7 6-2 8 9 24 32 4-4 14-20 12-16z"/>
<path transform="translate(888,862)" d="m0 0 16 5 19 9 25 10 18 4 12 1h29l21-3 19-5h6l4 4 2 7v36l-3 8-5 4-5 2-17 2-25 1h-71l-25-2-13-3-2-9-6-70z" fill="#FEFEFE"/>
<path transform="translate(939,352)" d="m0 0h36l33 2 28 3 29 5 31 8 29 10 20 9 18 11 11 9 8 8 3 4v4l-6-1-24-14-23-12-25-10-26-8-26-6-30-5-31-3h-55l-30 3-24 4-24 6-24 8-26 12-18 10-14 10-14 11-26 22-5 2 1-6 10-13 11-13 12-11 18-13 16-9 21-10 30-11 19-6 28-6 22-3z"/>
<path transform="translate(1150,841)" d="m0 0 16 6 19 9 10 7 4 5-4 31-1 12v28l3 22 7 26 6 20v9l-4 2-10-7-13-13-5-10-11-43-15-61-3-18v-24z" fill="#FEFEFE"/>
<path transform="translate(789,843)" d="m0 0h9l1 1 2 11v12l-3 32-7 77-3 12-5 11-6 9-6 5-2 1h-6v-11l2-20v-62l-3-18-10-28-3-7v-4l26-13z" fill="#FEFEFE"/>
<path transform="translate(834,965)" d="m0 0h13l8 4 6 5 4 9v7l-3 9-9 10-8 4-4 1h-7l-10-5-6-8-2-6v-11l3-8 5-6z" fill="#FEFEFE"/>
<path transform="translate(1124,969)" d="m0 0 11 1 8 4 6 7 3 9v9l-3 8-5 5-6 2h-16l-9-3-5-6-3-7v-13l5-8 6-5z" fill="#FEFEFE"/>
<path transform="translate(929,780)" d="m0 0h10l45 4h40l12-3h9l-1 5-7 6-12 5-16 4-6 1h-33l-18-4-17-6-8-6v-4z" fill="#FEFEFE"/>
<path transform="translate(1041,811)" d="m0 0 5 1 1 4-3 6-10 9-16 8-9 3-19 3h-15l-16-3-10-4-9-6-5-6v-4l5 1 12 6 15 4 8 1h22l14-3 10-4 8-6 10-9z"/>
<path transform="translate(1035,527)" d="m0 0h11l6 4 3 4 1 4v7l-3 7-5 4-5 2-7-1-5-4-5-8v-8l4-7z" fill="#FEFEFE"/>
<path transform="translate(885,525)" d="m0 0 9 3 5 5 5 8-1 4-7 8-6 3-9-2-5-5-2-3v-11l3-5z" fill="#FEFEFE"/>
<path transform="translate(1342,944)" d="m0 0h3l1 3v9l-4 16-8 16-9 10-5 4-4-1 1-5 11-26 9-20 3-5z"/>
<path transform="translate(598,953)" d="m0 0 5 1 6 7 5 10 8 27 1 9-4-1-5-5-6-8-8-16-5-14v-7z"/>
<path transform="translate(1367,950)" d="m0 0 7 1 1 2v12l-5 13-8 15-6 7-3-2v-12l3-17 4-11 4-6z"/>
<path transform="translate(626,950)" d="m0 0h3l18 34 9 18v5l-4-1-10-8-8-11-7-15-2-6-1-12z"/>
<path transform="translate(563,962)" d="m0 0 6 1 8 7 9 13 6 13v7l-5-1-8-8-9-13-8-15z"/>
<path transform="translate(1403,955)" d="m0 0 4 1 1 6-3 10-6 12-10 11-6 2v-8l8-16 8-14z"/>
</svg>
