<svg xmlns="http://www.w3.org/2000/svg" xmlns:xlink="http://www.w3.org/1999/xlink" width="1280" height="720" viewBox="0 0 1280 720" style="background:#141932"><defs><linearGradient id="a" x1="50.142%" x2="50.142%" y1="100%" y2="0%"><stop offset="0%" stop-color="#3952A8"/><stop offset="51.507%" stop-color="#36378C" stop-opacity=".529"/><stop offset="100%" stop-color="#151A32" stop-opacity=".097"/></linearGradient><path id="b" d="M-3.41060513e-13,633.731488 C210.281502,611.434419 423.805425,600 640,600 C856.194575,600 1069.7185,611.434419 1280,633.731488 L1280,720 L0,720 L0,633.731488 Z"/><linearGradient id="c" x1="39.803%" x2="39.803%" y1="59.878%" y2="121.158%"><stop offset="0%" stop-color="#FFF"/><stop offset="100%" stop-color="#9FC1DB"/></linearGradient><linearGradient id="d" x1="50%" x2="25.242%" y1="0%" y2="111.09%"><stop offset="0%" stop-color="#90B9D9"/><stop offset="100%" stop-color="#554BBA"/></linearGradient></defs><g fill="none" fill-rule="evenodd"><g fill="#8089CA" opacity=".504"><path d="M948.35504 33.2853938C953.45168 33.9569767 956 34.6951788 956 35.5 956 36.3048214 953.451678 37.0430237 948.355035 37.7146068L948.355036 37.7146091C946.981681 37.8955757 945.910793 38.9933097 945.763879 40.3707235 945.079178 46.7902412 944.324552 50 943.5 50 942.675448 50 941.920821 46.790238 941.23612 40.370714L941.236111 40.370715C941.089198 38.9933041 940.018312 37.8955725 938.64496 37.7146062 933.54832 37.0430233 931 36.3048212 931 35.5 931 34.6951786 933.548322 33.9569763 938.644965 33.2853932L938.644964 33.2853909C940.018319 33.1044243 941.089207 32.0066903 941.236121 30.6292765 941.920822 24.2097588 942.675448 21 943.5 21 944.324552 21 945.079179 24.209762 945.76388 30.629286L945.763889 30.629285C945.910802 32.0066959 946.981688 33.1044275 948.35504 33.2853938zM177.35504 118.285394C182.45168 118.956977 185 119.695179 185 120.5 185 121.304821 182.451678 122.043024 177.355035 122.714607L177.355036 122.714609C175.981681 122.895576 174.910793 123.99331 174.763879 125.370724 174.079178 131.790241 173.324552 135 172.5 135 171.675448 135 170.920821 131.790238 170.23612 125.370714L170.236111 125.370715C170.089198 123.993304 169.018312 122.895572 167.64496 122.714606 162.54832 122.043023 160 121.304821 160 120.5 160 119.695179 162.548322 118.956976 167.644965 118.285393L167.644964 118.285391C169.018319 118.104424 170.089207 117.00669 170.236121 115.629276 170.920822 109.209759 171.675448 106 172.5 106 173.324552 106 174.079179 109.209762 174.76388 115.629286L174.763889 115.629285C174.910802 117.006696 175.981688 118.104428 177.35504 118.285394zM78.1319455 270.326734C82.0439818 270.987238 84 271.711659 84 272.5 84 273.288339 82.0439884 274.01276 78.1319651 274.673262L78.1319626 274.673248C76.8725782 274.885881 75.8858984 275.872561 75.6732656 277.131946 75.0127624 281.043982 74.2883406 283 73.5 283 72.7116607 283 71.98724 281.043988 71.3267377 277.131965L71.3267523 277.131963C71.114119 275.872578 70.1274389 274.885898 68.8680545 274.673266 64.9560182 274.012762 63 273.288341 63 272.5 63 271.711661 64.9560116 270.98724 68.8680349 270.326738L68.8680374 270.326752C70.1274218 270.114119 71.1141016 269.127439 71.3267344 267.868054 71.9872376 263.956018 72.7116594 262 73.5 262 74.2883393 262 75.01276 263.956012 75.6732623 267.868035L75.6732477 267.868037C75.885881 269.127422 76.8725611 270.114102 78.1319455 270.326734zM426.131946 8.3267344C430.043982 8.98723756 432 9.71165943 432 10.5 432 11.2883393 430.043988 12.01276 426.131965 12.6732623L426.131963 12.6732477C424.872578 12.885881 423.885898 13.8725611 423.673266 15.1319455 423.012762 19.0439818 422.288341 21 421.5 21 420.711661 21 419.98724 19.0439884 419.326738 15.1319651L419.326752 15.1319626C419.114119 13.8725782 418.127439 12.8858984 416.868054 12.6732656 412.956018 12.0127624 411 11.2883406 411 10.5 411 9.71166074 412.956012 8.98723998 416.868035 8.32673769L416.868037 8.32675227C418.127422 8.11411902 419.114102 7.1274389 419.326734 5.86805448 419.987238 1.95601816 420.711659 0 421.5 0 422.288339 0 423.01276 1.95601165 423.673262 5.86803495L423.673248 5.86803741C423.885881 7.12742176 424.872561 8.11410155 426.131946 8.3267344zM1134.13195 133.326734C1138.04398 133.987238 1140 134.711659 1140 135.5 1140 136.288339 1138.04399 137.01276 1134.13197 137.673262L1134.13196 137.673248C1132.87258 137.885881 1131.8859 138.872561 1131.67327 140.131946 1131.01276 144.043982 1130.28834 146 1129.5 146 1128.71166 146 1127.98724 144.043988 1127.32674 140.131965L1127.32675 140.131963C1127.11412 138.872578 1126.12744 137.885898 1124.86805 137.673266 1120.95602 137.012762 1119 136.288341 1119 135.5 1119 134.711661 1120.95601 133.98724 1124.86803 133.326738L1124.86804 133.326752C1126.12742 133.114119 1127.1141 132.127439 1127.32673 130.868054 1127.98724 126.956018 1128.71166 125 1129.5 125 1130.28834 125 1131.01276 126.956012 1131.67326 130.868035L1131.67325 130.868037C1131.88588 132.127422 1132.87256 133.114102 1134.13195 133.326734zM1187.13195 320.326734C1191.04398 320.987238 1193 321.711659 1193 322.5 1193 323.288339 1191.04399 324.01276 1187.13197 324.673262L1187.13196 324.673248C1185.87258 324.885881 1184.8859 325.872561 1184.67327 327.131946 1184.01276 331.043982 1183.28834 333 1182.5 333 1181.71166 333 1180.98724 331.043988 1180.32674 327.131965L1180.32675 327.131963C1180.11412 325.872578 1179.12744 324.885898 1177.86805 324.673266 1173.95602 324.012762 1172 323.288341 1172 322.5 1172 321.711661 1173.95601 320.98724 1177.86803 320.326738L1177.86804 320.326752C1179.12742 320.114119 1180.1141 319.127439 1180.32673 317.868054 1180.98724 313.956018 1181.71166 312 1182.5 312 1183.28834 312 1184.01276 313.956012 1184.67326 317.868035L1184.67325 317.868037C1184.88588 319.127422 1185.87256 320.114102 1187.13195 320.326734z" transform="translate(36 30)"/><path d="M345.75138,198.258283 C348.931003,198.793842 350.520815,199.381353 350.520815,200.020815 C350.520815,200.660277 348.931006,201.247787 345.751389,201.783346 L345.751388,201.783339 C344.743132,201.953165 343.953173,202.743125 343.783347,203.75138 C343.247789,206.931003 342.660278,208.520815 342.020815,208.520815 C341.381353,208.520815 340.793843,206.931006 340.258285,203.751389 L340.258291,203.751388 C340.088466,202.743132 339.298506,201.953173 338.290251,201.783347 C335.110627,201.247789 333.520815,200.660278 333.520815,200.020815 C333.520815,199.381353 335.110624,198.793843 338.290242,198.258285 L338.290243,198.258291 C339.298498,198.088466 340.088458,197.298506 340.258283,196.290251 C340.793842,193.110627 341.381353,191.520815 342.020815,191.520815 C342.660277,191.520815 343.247787,193.110624 343.783346,196.290242 L343.783339,196.290243 C343.953165,197.298498 344.743125,198.088458 345.75138,198.258283 Z" transform="translate(36 30) rotate(45 342.02 200.02)"/><path d="M15.7513799,33.2582831 C18.9310035,33.793842 20.5208153,34.3813527 20.5208153,35.0208153 C20.5208153,35.6602772 18.9310065,36.2477874 15.7513888,36.7833459 L15.7513877,36.7833393 C14.7431324,36.9531646 13.9531726,37.7431246 13.7833474,38.7513799 C13.2477885,41.9310035 12.6602778,43.5208153 12.0208153,43.5208153 C11.3813533,43.5208153 10.7938431,41.9310065 10.2582846,38.7513888 L10.2582913,38.7513877 C10.0884659,37.7431324 9.29850601,36.9531726 8.29025065,36.7833474 C5.11062707,36.2477885 3.52081528,35.6602778 3.52081528,35.0208153 C3.52081528,34.3813533 5.1106241,33.7938431 8.29024173,33.2582846 L8.29024285,33.2582913 C9.29849818,33.0884659 10.088458,32.298506 10.2582831,31.2902507 C10.793842,28.1106271 11.3813527,26.5208153 12.0208153,26.5208153 C12.6602772,26.5208153 13.2477874,28.1106241 13.7833459,31.2902417 L13.7833393,31.2902429 C13.9531646,32.2984982 14.7431246,33.088458 15.7513799,33.2582831 Z" transform="translate(36 30) rotate(45 12.02 35.02)"/><path d="M869.75138,213.258283 C872.931003,213.793842 874.520815,214.381353 874.520815,215.020815 C874.520815,215.660277 872.931006,216.247787 869.751389,216.783346 L869.751388,216.783339 C868.743132,216.953165 867.953173,217.743125 867.783347,218.75138 C867.247789,221.931003 866.660278,223.520815 866.020815,223.520815 C865.381353,223.520815 864.793843,221.931006 864.258285,218.751389 L864.258291,218.751388 C864.088466,217.743132 863.298506,216.953173 862.290251,216.783347 C859.110627,216.247789 857.520815,215.660278 857.520815,215.020815 C857.520815,214.381353 859.110624,213.793843 862.290242,213.258285 L862.290243,213.258291 C863.298498,213.088466 864.088458,212.298506 864.258283,211.290251 C864.793842,208.110627 865.381353,206.520815 866.020815,206.520815 C866.660277,206.520815 867.247787,208.110624 867.783346,211.290242 L867.783339,211.290243 C867.953165,212.298498 868.743125,213.088458 869.75138,213.258283 Z" transform="translate(36 30) rotate(45 866.02 215.02)"/><path d="M679.75138,57.2582831 C682.931003,57.793842 684.520815,58.3813527 684.520815,59.0208153 C684.520815,59.6602772 682.931006,60.2477874 679.751389,60.7833459 L679.751388,60.7833393 C678.743132,60.9531646 677.953173,61.7431246 677.783347,62.7513799 C677.247789,65.9310035 676.660278,67.5208153 676.020815,67.5208153 C675.381353,67.5208153 674.793843,65.9310065 674.258285,62.7513888 L674.258291,62.7513877 C674.088466,61.7431324 673.298506,60.9531726 672.290251,60.7833474 C669.110627,60.2477885 667.520815,59.6602778 667.520815,59.0208153 C667.520815,58.3813533 669.110624,57.7938431 672.290242,57.2582846 L672.290243,57.2582913 C673.298498,57.0884659 674.088458,56.298506 674.258283,55.2902507 C674.793842,52.1106271 675.381353,50.5208153 676.020815,50.5208153 C676.660277,50.5208153 677.247787,52.1106241 677.783346,55.2902417 L677.783339,55.2902429 C677.953165,56.2984982 678.743125,57.088458 679.75138,57.2582831 Z" transform="translate(36 30) rotate(45 676.02 59.02)"/></g><rect width="1280" height="720" fill="url(#a)"/><use fill="#1C2149" xlink:href="#b"/><path stroke="#1C2149" stroke-opacity=".3" stroke-width="20" d="M-1.05443273,623.787235 C210.851493,601.317921 424.73221,590 640,590 C855.26779,590 1069.14851,601.317921 1281.05443,623.787235 L1290,624.735773 L1290,730 L-10,730 L-10,624.735773 L-1.05443273,623.787235 Z"/><path stroke="#1C2149" stroke-opacity=".3" stroke-width="40" d="M-2.10886547,613.842982 C210.147152,591.336546 424.379836,580 640,580 C855.620164,580 1069.85285,591.336546 1282.10887,613.842982 L1300,615.740057 L1300,740 L-20,740 L-20,615.740057 L-2.10886547,613.842982 Z"/><path stroke="#21254D" stroke-opacity=".4" stroke-width="80" d="M-4.21773094,593.954476 C208.73847,571.373797 423.675088,560 640,560 C856.324912,560 1071.26153,571.373797 1284.21773,593.954476 L1320,597.748626 L1320,760 L-40,760 L-40,597.748626 L-4.21773094,593.954476 Z"/><g fill="#5B89D5"><path d="M25.4268,38.9907 C25.2979994,38.851166 25.2336,38.6740677 25.2336,38.4594 L25.2336,17.4328 C25.2336,17.1966655 25.2979994,17.008834 25.4268,16.8693 C25.5556006,16.729766 25.7273323,16.66 25.942,16.66 L33.7988,16.66 C36.2460122,16.66 38.1618931,17.2342276 39.5465,18.3827 C40.9311069,19.5311724 41.6234,21.2001891 41.6234,23.3898 C41.6234,25.0212748 41.2155374,26.3629281 40.3998,27.4148 C39.5840626,28.4666719 38.4463406,29.1965313 36.9866,29.6044 L41.9454,38.2018 C42.0098003,38.3306006 42.042,38.4486661 42.042,38.556 C42.042,38.7277342 41.9776006,38.8779994 41.8488,39.0068 C41.7199994,39.1356006 41.5697342,39.2 41.398,39.2 L39.9812,39.2 C39.6591984,39.2 39.4069676,39.1248674 39.2245,38.9746 C39.0420324,38.8243326 38.8756674,38.6096681 38.7254,38.3306 L33.992,30.0874 L28.2604,30.0874 L28.2604,38.4594 C28.2604,38.6740677 28.1852674,38.851166 28.035,38.9907 C27.8847326,39.130234 27.7022677,39.2 27.4876,39.2 L25.942,39.2 C25.7273323,39.2 25.5556006,39.130234 25.4268,38.9907 Z M33.67,27.447 C36.9114829,27.447 38.5322,26.0838803 38.5322,23.3576 C38.5322,20.6313197 36.9114829,19.2682 33.67,19.2682 L28.2604,19.2682 L28.2604,27.447 L33.67,27.447 Z M53.2,31.860303 L57.060303,28 L53.2,24.139697 L53.2,15.402449 C53.2,11.5350265 50.0649486,8.4 46.197551,8.4 L42.000818,8.4 C40.4510219,8.4 39.2,7.14770536 39.2,5.60292163 L39.2,2.79707837 C39.2,1.25302663 40.4539689,0 42.000818,0 L46.197551,0 C54.7041256,0 61.6,6.89581971 61.6,15.402449 L61.6,20.660303 L65.7219978,24.7823008 C67.500435,26.560738 67.4968427,29.4428543 65.7219978,31.2176992 L61.6,35.339697 L61.6,40.597551 C61.6,49.1041256 54.7041803,56 46.197551,56 L42.000818,56 C40.4510219,56 39.2,54.7477054 39.2,53.2029216 L39.2,50.3970784 C39.2,48.8530266 40.4539689,47.6 42.000818,47.6 L46.197551,47.6 C50.0649735,47.6 53.2,44.4649486 53.2,40.597551 L53.2,31.860303 Z M25.2,50.4 L21.002449,50.4 C15.5886363,50.4 11.2,46.011353 11.2,40.597551 L11.2,33.020101 L6.17989899,28 L11.2,22.979899 L11.2,15.402449 C11.2,9.98863626 15.588647,5.6 21.002449,5.6 L25.2,5.6 L25.2,2.8 L21.002449,2.8 C14.0422512,2.8 8.4,8.44223742 8.4,15.402449 L8.4,21.820101 L3.45790122,26.7621998 C2.774514,27.445587 2.77494166,28.5548406 3.45790122,29.2378002 L8.4,34.179899 L8.4,40.597551 C8.4,47.5577488 14.0422374,53.2 21.002449,53.2 L25.2,53.2 L25.2,50.4 Z M1.47800224,24.7823008 L5.6,20.660303 L5.6,15.402449 C5.6,6.89581971 12.4958744,0 21.002449,0 L25.199182,0 C26.7460311,0 28,1.25302663 28,2.79707837 L28,5.60292163 C28,7.14770536 26.7489781,8.4 25.199182,8.4 L21.002449,8.4 C17.1350514,8.4 14,11.5350265 14,15.402449 L14,24.139697 L10.139697,28 L14,31.860303 L14,40.597551 C14,44.4649486 17.1350265,47.6 21.002449,47.6 L25.199182,47.6 C26.7460311,47.6 28,48.8530266 28,50.3970784 L28,53.2029216 C28,54.7477054 26.7489781,56 25.199182,56 L21.002449,56 C12.4958197,56 5.6,49.1041256 5.6,40.597551 L5.6,35.339697 L1.47800224,31.2176992 C-0.296842703,29.4428543 -0.30043498,26.560738 1.47800224,24.7823008 Z" transform="translate(606 632)"/></g><g><text fill="#FFF" font-family="Montserrat-Light, Montserrat" font-size="62" font-weight="300" letter-spacing="8" transform="translate(414 192)"><tspan x=".144" y="236">atmosphèr</tspan> <tspan x="405.704" y="236" letter-spacing="9.697">e</tspan></text><g><path fill="url(#c)" d="M121.078957,116.456601 C113.007813,102.506384 94.6724437,84.1520147 73.90625,72.1172787 C54.7513596,61.0163493 34.375,60.1328429 19.3134382,58.7216783 L60.3914036,6.64405962 C66.2560092,-0.790940998 77.0610143,-2.08249647 84.5250579,3.75928973 C85.6023811,4.60246432 86.5746282,5.57092832 87.4210964,6.64405962 L145.359575,80.0970164 C147.808011,83.201082 147.808011,87.5704404 145.359575,90.674506 L127.596668,113.193877 C125.978069,115.242092 123.568431,116.387804 121.078957,116.456601 Z" transform="translate(414 192) translate(152.094 51.563)"/><path fill="url(#d)" d="M101.433683,109.630854 C92.6706405,107.21906 83.4395117,105.930508 73.90625,105.930508 C62.7990789,105.930508 52.1020381,107.679652 42.077593,110.916497 C37.5820565,112.368083 33.2217884,114.118867 29.0204608,116.145269 C25.7797865,116.958615 22.2911652,115.824932 20.1666979,113.131585 L2.45292454,90.674506 C0.00448884051,87.5704404 0.00448884051,83.201082 2.45292454,80.0970164 L19.8866117,57.9950231 C20.1325464,57.9935185 20.3786849,57.9927651 20.625,57.9927651 C64.0716885,57.9927651 102.021842,81.4346595 122.423632,116.313514 C121.32153,116.518985 120.176675,116.510687 119.054846,116.272487 C113.447207,113.54814 107.554634,111.315484 101.433683,109.630854 Z" transform="translate(414 192) translate(152.094 51.563)"/></g></g></g></svg>